<?xml version="1.0" encoding="UTF-8"?>
<svg id="Warstwa_1" data-name="Warstwa 1" xmlns="http://www.w3.org/2000/svg" viewBox="0 0 94.22 17.3">
  <defs>
    <style>
      .cls-1 {
        stroke-width: 0px;
      }
    </style>
  </defs>
  <path class="cls-1" d="m0,.44h3.93l13.93,16.28-4.44.05L3.93,5.51v11.21H0V.44ZM13.93.44h3.93v11.93l-3.93-4.4V.44Z"/>
  <path class="cls-1" d="m35.86.44v3.28h-14.53V.44h14.53Zm0,6.51v3.25h-14.53v-3.25h14.53Zm0,6.49v3.28h-14.46v-3.28h14.46Z"/>
  <path class="cls-1" d="m43.18,16.72h-5.05l4.93-6.26,2.47,3.07-2.35,3.19Zm8.05,0L38.72.44h4.65l3.84,4.84,3.84-4.84h4.63l-6.05,7.88,6.65,8.4h-5.05Z"/>
  <path class="cls-1" d="m58.39.44h3.93v9.63c0,2.35,2.14,3.54,4.3,3.54s4.3-1.19,4.3-3.54V.44h3.93v9.63c0,4.81-4.12,7.23-8.23,7.23s-8.23-2.42-8.23-7.23V.44Z"/>
  <path class="cls-1" d="m92.27,5.56c-1.49-1.3-4.3-2.12-6.49-2.12-1.72,0-3.02.49-3.02,1.6,0,2.84,11.46.7,11.46,7.19,0,3.58-3.72,5.02-7.77,5.02-3.3,0-6.84-.95-8.81-2.49l1.93-3.26c1.54,1.42,4.81,2.3,7.28,2.3,1.72,0,3.07-.46,3.07-1.49,0-2.95-11.42-.91-11.42-7.35,0-3.58,3.35-4.98,7.12-4.98,3.12,0,6.51.93,8.56,2.4l-1.91,3.16Z"/>
</svg>